<svg xmlns="http://www.w3.org/2000/svg" xmlns:xlink="http://www.w3.org/1999/xlink"><symbol id="icon-1-24px-sec2" viewBox="0 0 24 24"><path d="M0 0h24v24H0z" fill="none"/><path d="M12 8c-2.21 0-4 1.79-4 4s1.79 4 4 4 4-1.79 4-4-1.79-4-4-4zm8.94 3c-.46-4.17-3.77-7.48-7.94-7.94V1h-2v2.06C6.83 3.52 3.52 6.83 3.06 11H1v2h2.06c.46 4.17 3.77 7.48 7.94 7.94V23h2v-2.06c4.17-.46 7.48-3.77 7.94-7.94H23v-2h-2.06zM12 19c-3.87 0-7-3.13-7-7s3.13-7 7-7 7 3.13 7 7-3.13 7-7 7z"/></symbol><symbol id="icon-1-sec2" viewBox="0 0 58 58">
<path d="M50.688,48.222C55.232,43.101,58,36.369,58,29c0-7.667-2.996-14.643-7.872-19.834c0,0,0-0.001,0-0.001
	c-0.004-0.006-0.01-0.008-0.013-0.013c-5.079-5.399-12.195-8.855-20.11-9.126l-0.001-0.001L29.439,0.01C29.293,0.005,29.147,0,29,0
	s-0.293,0.005-0.439,0.01l-0.563,0.015l-0.001,0.001c-7.915,0.271-15.031,3.727-20.11,9.126c-0.004,0.005-0.01,0.007-0.013,0.013
	c0,0,0,0.001-0.001,0.002C2.996,14.357,0,21.333,0,29c0,7.369,2.768,14.101,7.312,19.222c0.006,0.009,0.006,0.019,0.013,0.028
	c0.018,0.025,0.044,0.037,0.063,0.06c5.106,5.708,12.432,9.385,20.608,9.665l0.001,0.001l0.563,0.015C28.707,57.995,28.853,58,29,58
	s0.293-0.005,0.439-0.01l0.563-0.015l0.001-0.001c8.185-0.281,15.519-3.965,20.625-9.685c0.013-0.017,0.034-0.022,0.046-0.04
	C50.682,48.241,50.682,48.231,50.688,48.222z M2.025,30h12.003c0.113,4.239,0.941,8.358,2.415,12.217
	c-2.844,1.029-5.563,2.409-8.111,4.131C4.585,41.891,2.253,36.21,2.025,30z M8.878,11.023c2.488,1.618,5.137,2.914,7.9,3.882
	C15.086,19.012,14.15,23.44,14.028,28H2.025C2.264,21.493,4.812,15.568,8.878,11.023z M55.975,28H43.972
	c-0.122-4.56-1.058-8.988-2.75-13.095c2.763-0.968,5.412-2.264,7.9-3.882C53.188,15.568,55.736,21.493,55.975,28z M28,14.963
	c-2.891-0.082-5.729-0.513-8.471-1.283C21.556,9.522,24.418,5.769,28,2.644V14.963z M28,16.963V28H16.028
	c0.123-4.348,1.035-8.565,2.666-12.475C21.7,16.396,24.821,16.878,28,16.963z M30,16.963c3.179-0.085,6.3-0.566,9.307-1.438
	c1.631,3.91,2.543,8.127,2.666,12.475H30V16.963z M30,14.963V2.644c3.582,3.125,6.444,6.878,8.471,11.036
	C35.729,14.45,32.891,14.881,30,14.963z M40.409,13.072c-1.921-4.025-4.587-7.692-7.888-10.835
	c5.856,0.766,11.125,3.414,15.183,7.318C45.4,11.017,42.956,12.193,40.409,13.072z M17.591,13.072
	c-2.547-0.879-4.991-2.055-7.294-3.517c4.057-3.904,9.327-6.552,15.183-7.318C22.178,5.38,19.512,9.047,17.591,13.072z M16.028,30
	H28v10.038c-3.307,0.088-6.547,0.604-9.661,1.541C16.932,37.924,16.141,34.019,16.028,30z M28,42.038v13.318
	c-3.834-3.345-6.84-7.409-8.884-11.917C21.983,42.594,24.961,42.124,28,42.038z M30,55.356V42.038
	c3.039,0.085,6.017,0.556,8.884,1.4C36.84,47.947,33.834,52.011,30,55.356z M30,40.038V30h11.972
	c-0.113,4.019-0.904,7.924-2.312,11.58C36.547,40.642,33.307,40.126,30,40.038z M43.972,30h12.003
	c-0.228,6.21-2.559,11.891-6.307,16.348c-2.548-1.722-5.267-3.102-8.111-4.131C43.032,38.358,43.859,34.239,43.972,30z
	 M9.691,47.846c2.366-1.572,4.885-2.836,7.517-3.781c1.945,4.36,4.737,8.333,8.271,11.698C19.328,54.958,13.823,52.078,9.691,47.846
	z M32.521,55.763c3.534-3.364,6.326-7.337,8.271-11.698c2.632,0.945,5.15,2.209,7.517,3.781
	C44.177,52.078,38.672,54.958,32.521,55.763z"/>
<g>
</g>
<g>
</g>
<g>
</g>
<g>
</g>
<g>
</g>
<g>
</g>
<g>
</g>
<g>
</g>
<g>
</g>
<g>
</g>
<g>
</g>
<g>
</g>
<g>
</g>
<g>
</g>
<g>
</g>
</symbol><symbol id="icon-2-sec2" viewBox="0 -3 512.00148 512">
<g id="surface1">
<path d="M 460.339844 337.679688 L 495.367188 302.648438 C 517.542969 280.476562 517.546875 244.394531 495.371094 222.210938 C 488.566406 215.410156 480.394531 210.632812 471.664062 207.984375 C 478.804688 198.285156 482.667969 186.609375 482.667969 174.339844 C 482.667969 159.148438 476.75 144.863281 466.003906 134.121094 C 455.265625 123.378906 440.980469 117.460938 425.785156 117.460938 C 425.148438 117.460938 424.511719 117.472656 423.875 117.492188 C 424.371094 102.308594 418.839844 86.957031 407.273438 75.386719 C 395.707031 63.824219 380.335938 58.285156 365.175781 58.789062 C 365.195312 58.15625 365.207031 57.515625 365.207031 56.878906 C 365.207031 41.683594 359.289062 27.402344 348.546875 16.660156 C 326.375 -5.511719 290.292969 -5.515625 268.109375 16.660156 L 256 28.769531 L 243.894531 16.664062 C 233.152344 5.917969 218.867188 0 203.671875 0 C 188.480469 0 174.199219 5.917969 163.457031 16.65625 C 151.886719 28.226562 146.367188 43.582031 146.871094 58.777344 C 146.230469 58.753906 145.589844 58.730469 144.949219 58.730469 C 129.757812 58.730469 115.472656 64.644531 104.722656 75.386719 C 93.15625 86.960938 87.636719 102.316406 88.140625 117.507812 C 87.496094 117.484375 86.855469 117.460938 86.210938 117.460938 C 71.019531 117.460938 56.734375 123.378906 46 134.117188 C 35.253906 144.859375 29.335938 159.144531 29.335938 174.339844 C 29.335938 186.605469 33.195312 198.28125 40.339844 207.976562 C 31.480469 210.648438 23.359375 215.484375 16.628906 222.210938 C -5.492188 244.339844 -5.542969 280.308594 16.480469 302.492188 C 16.535156 302.550781 16.589844 302.605469 16.644531 302.664062 L 51.722656 337.734375 C 51.769531 337.785156 51.820312 337.835938 51.871094 337.886719 C 53.976562 339.996094 56.226562 341.90625 58.585938 343.636719 L 48.210938 354.011719 C 38.121094 364.101562 32.980469 377.847656 33.742188 392.71875 C 34.46875 406.996094 40.613281 420.597656 51.035156 431.019531 L 110.367188 490.355469 C 121.375 501.359375 135.828125 506.863281 150.285156 506.863281 C 164.742188 506.863281 179.199219 501.359375 190.203125 490.355469 L 217.78125 462.773438 C 230.363281 465.472656 243.179688 466.84375 256.007812 466.84375 C 268.824219 466.84375 281.644531 465.480469 294.222656 462.78125 L 321.792969 490.355469 C 332.800781 501.359375 347.253906 506.863281 361.710938 506.863281 C 376.164062 506.859375 390.625 501.359375 401.628906 490.355469 L 460.964844 431.019531 C 482.972656 409.011719 485.472656 375.699219 466.535156 356.757812 L 453.898438 344.121094 L 460.132812 337.882812 C 460.203125 337.816406 460.269531 337.75 460.339844 337.679688 Z M 185.164062 38.367188 C 190.109375 33.421875 196.683594 30.699219 203.675781 30.699219 C 210.667969 30.699219 217.242188 33.421875 222.1875 38.367188 L 269.167969 85.347656 C 279.375 95.558594 279.375 112.167969 269.167969 122.375 C 264.222656 127.320312 257.648438 130.042969 250.660156 130.042969 L 250.65625 130.042969 C 243.664062 130.039062 237.09375 127.320312 232.148438 122.375 C 232.140625 122.367188 232.132812 122.359375 232.128906 122.355469 L 185.175781 75.402344 C 185.136719 75.363281 185.101562 75.324219 185.058594 75.289062 C 174.957031 65.066406 174.992188 48.535156 185.164062 38.367188 Z M 126.363281 134.050781 C 116.226562 123.835938 116.25 107.277344 126.429688 97.097656 C 131.378906 92.152344 137.957031 89.429688 144.949219 89.429688 C 151.933594 89.429688 158.5 92.148438 163.445312 97.089844 C 163.449219 97.089844 163.453125 97.09375 163.453125 97.097656 C 163.472656 97.113281 163.488281 97.128906 163.503906 97.144531 L 210.429688 144.070312 C 210.457031 144.101562 210.492188 144.132812 210.523438 144.164062 L 222.183594 155.824219 C 227.128906 160.769531 229.855469 167.34375 229.855469 174.339844 C 229.855469 181.332031 227.132812 187.90625 222.1875 192.847656 C 217.242188 197.792969 210.667969 200.515625 203.675781 200.515625 C 196.683594 200.515625 190.109375 197.792969 185.167969 192.847656 C 185.105469 192.785156 185.042969 192.726562 184.980469 192.667969 L 173.46875 181.152344 C 173.453125 181.136719 173.4375 181.121094 173.421875 181.101562 L 126.433594 134.121094 C 126.433594 134.121094 126.429688 134.117188 126.429688 134.117188 C 126.40625 134.09375 126.382812 134.070312 126.363281 134.050781 Z M 67.710938 155.824219 C 72.652344 150.882812 79.222656 148.160156 86.214844 148.160156 C 93.207031 148.160156 99.78125 150.882812 104.726562 155.828125 L 151.761719 202.863281 C 161.917969 213.074219 161.898438 229.644531 151.714844 239.835938 C 146.769531 244.777344 140.191406 247.5 133.199219 247.5 C 126.207031 247.5 119.632812 244.777344 114.691406 239.832031 C 114.628906 239.773438 114.570312 239.710938 114.507812 239.652344 L 67.855469 193 C 67.804688 192.949219 67.753906 192.894531 67.707031 192.847656 C 62.761719 187.902344 60.039062 181.332031 60.039062 174.339844 C 60.035156 167.347656 62.761719 160.773438 67.710938 155.824219 Z M 38.496094 281.101562 C 38.4375 281.039062 38.378906 280.980469 38.320312 280.921875 C 28.132812 270.714844 28.140625 254.121094 38.339844 243.921875 C 43.285156 238.976562 49.859375 236.253906 56.851562 236.253906 C 63.84375 236.253906 70.421875 238.976562 75.367188 243.925781 L 110.601562 279.15625 C 120.808594 289.363281 120.808594 305.972656 110.605469 316.179688 C 105.660156 321.125 99.085938 323.847656 92.097656 323.847656 L 92.09375 323.847656 C 90.808594 323.847656 89.539062 323.753906 88.289062 323.574219 C 88.195312 323.554688 88.101562 323.542969 88.007812 323.527344 C 82.617188 322.6875 77.640625 320.195312 73.691406 316.292969 C 73.652344 316.25 73.609375 316.210938 73.570312 316.167969 Z M 216.949219 431.035156 C 216.816406 431 216.6875 430.984375 216.558594 430.953125 C 216.25 430.878906 215.945312 430.808594 215.636719 430.753906 C 215.410156 430.714844 215.183594 430.6875 214.953125 430.65625 C 214.699219 430.625 214.445312 430.59375 214.1875 430.574219 C 213.917969 430.550781 213.648438 430.539062 213.378906 430.535156 C 213.160156 430.527344 212.945312 430.523438 212.726562 430.527344 C 212.4375 430.53125 212.152344 430.546875 211.867188 430.570312 C 211.660156 430.585938 211.453125 430.601562 211.246094 430.625 C 210.964844 430.65625 210.6875 430.699219 210.410156 430.746094 C 210.191406 430.78125 209.976562 430.824219 209.757812 430.871094 C 209.503906 430.925781 209.253906 430.984375 209.003906 431.054688 C 208.765625 431.117188 208.527344 431.1875 208.289062 431.261719 C 208.066406 431.335938 207.851562 431.414062 207.632812 431.492188 C 207.378906 431.589844 207.125 431.6875 206.878906 431.796875 C 206.679688 431.882812 206.480469 431.976562 206.285156 432.070312 C 206.035156 432.191406 205.789062 432.316406 205.546875 432.453125 C 205.347656 432.5625 205.152344 432.679688 204.957031 432.800781 C 204.738281 432.9375 204.515625 433.074219 204.300781 433.222656 C 204.082031 433.375 203.867188 433.535156 203.65625 433.699219 C 203.480469 433.832031 203.308594 433.964844 203.136719 434.105469 C 202.886719 434.316406 202.648438 434.535156 202.414062 434.761719 C 202.324219 434.847656 202.226562 434.921875 202.136719 435.011719 L 168.5 468.648438 C 158.457031 478.691406 142.121094 478.691406 132.078125 468.648438 L 72.746094 409.316406 C 67.707031 404.277344 64.742188 397.828125 64.402344 391.152344 C 64.09375 385.070312 66.050781 379.589844 69.921875 375.722656 L 91.117188 354.523438 C 91.441406 354.527344 91.765625 354.546875 92.09375 354.546875 C 92.09375 354.546875 92.09375 354.546875 92.097656 354.546875 C 107.285156 354.546875 121.566406 348.628906 132.3125 337.886719 C 148.753906 321.441406 152.992188 297.355469 145.046875 276.957031 C 155.71875 274.707031 165.527344 269.433594 173.425781 261.542969 C 182.445312 252.515625 187.796875 241.183594 189.472656 229.425781 C 194.058594 230.601562 198.820312 231.214844 203.675781 231.214844 C 203.675781 231.214844 203.675781 231.214844 203.679688 231.214844 C 218.867188 231.214844 233.148438 225.300781 243.894531 214.558594 C 254.636719 203.816406 260.554688 189.53125 260.554688 174.339844 C 260.554688 169.492188 259.945312 164.738281 258.777344 160.160156 C 270.886719 158.441406 282.074219 152.886719 290.875 144.078125 C 313.050781 121.90625 313.050781 85.824219 290.878906 63.644531 L 277.707031 50.472656 L 289.816406 38.367188 C 300.027344 28.160156 316.636719 28.160156 326.839844 38.363281 C 331.785156 43.308594 334.507812 49.882812 334.507812 56.875 C 334.507812 63.867188 331.785156 70.441406 326.839844 75.386719 C 323.84375 78.382812 322.34375 82.3125 322.34375 86.242188 C 322.34375 90.167969 323.839844 94.097656 326.839844 97.09375 C 332.835938 103.089844 342.550781 103.089844 348.546875 97.09375 C 358.75 86.890625 375.359375 86.886719 385.570312 97.09375 C 395.777344 107.304688 395.773438 123.914062 385.566406 134.121094 C 382.570312 137.117188 381.070312 141.046875 381.070312 144.972656 C 381.070312 148.902344 382.566406 152.828125 385.566406 155.824219 C 391.5625 161.820312 401.277344 161.820312 407.273438 155.828125 C 412.21875 150.882812 418.796875 148.160156 425.789062 148.15625 C 432.78125 148.15625 439.355469 150.878906 444.296875 155.824219 C 449.246094 160.773438 451.96875 167.347656 451.96875 174.339844 C 451.96875 181.238281 449.316406 187.730469 444.496094 192.648438 C 444.425781 192.71875 444.355469 192.785156 444.289062 192.855469 L 422.277344 214.871094 C 416.796875 220.351562 416.261719 229.058594 421.03125 235.167969 L 421.820312 236.179688 C 426.578125 242.277344 435.132812 243.878906 441.773438 239.921875 C 452.066406 233.789062 465.179688 235.433594 473.664062 243.914062 C 483.871094 254.125 483.871094 270.734375 473.664062 280.941406 L 438.433594 316.167969 C 438.367188 316.238281 438.296875 316.308594 438.230469 316.378906 L 362.609375 392 C 324.667969 429.941406 268.855469 444.898438 216.949219 431.035156 Z M 444.832031 378.464844 C 451.5625 385.199219 448.960938 399.617188 439.261719 409.316406 L 379.925781 468.648438 C 369.882812 478.691406 353.546875 478.691406 343.503906 468.648438 L 327.175781 452.320312 C 348.398438 443.261719 367.835938 430.1875 384.316406 413.707031 L 432.191406 365.828125 Z M 444.832031 378.464844 "/>
</g>
</symbol><symbol id="icon-3-sec2" viewBox="-74 1 511 511.99897">
<g id="surface1">
<path d="M 362.789062 291.128906 C 362.792969 290.980469 362.796875 290.835938 362.796875 290.6875 C 362.796875 260.269531 338.046875 235.519531 307.625 235.519531 L 292.566406 235.519531 L 358.589844 76.28125 C 370.226562 48.183594 356.835938 15.847656 328.734375 4.199219 C 300.628906 -7.441406 268.292969 5.953125 256.652344 34.058594 L 215.390625 133.667969 L 174.132812 34.054688 C 162.488281 5.953125 130.152344 -7.441406 102.050781 4.199219 C 73.949219 15.84375 60.554688 48.175781 72.195312 76.277344 L 108.039062 162.816406 C 103.515625 165.488281 99.410156 168.785156 95.832031 172.589844 C 85.761719 161.886719 71.488281 155.179688 55.667969 155.175781 C 25.246094 155.175781 0.5 179.925781 0.5 210.347656 L 0.5 330.851562 C 0.5 430.738281 81.761719 512 181.648438 512 C 281.53125 512 362.792969 430.738281 362.792969 330.851562 Z M 113.535156 31.917969 C 126.351562 26.605469 141.101562 32.71875 146.414062 45.539062 L 201.53125 178.605469 C 203.855469 184.210938 209.324219 187.867188 215.390625 187.867188 C 221.457031 187.867188 226.925781 184.210938 229.25 178.605469 L 284.367188 45.539062 C 289.679688 32.71875 304.429688 26.605469 317.25 31.914062 C 330.070312 37.230469 336.179688 51.980469 330.871094 64.796875 L 260.085938 235.519531 L 191.167969 235.519531 L 191.171875 210.347656 C 191.167969 180.386719 167.152344 155.945312 137.363281 155.210938 L 99.914062 64.800781 C 94.601562 51.980469 100.714844 37.230469 113.535156 31.917969 Z M 136 235.519531 C 126.9375 235.519531 118.386719 237.730469 110.835938 241.621094 L 110.835938 210.347656 C 110.835938 196.46875 122.125 185.179688 136 185.179688 C 149.878906 185.179688 161.167969 196.472656 161.171875 210.347656 L 161.167969 235.519531 Z M 30.5 210.347656 C 30.5 196.46875 41.789062 185.175781 55.664062 185.175781 C 69.542969 185.179688 80.832031 196.472656 80.835938 210.347656 L 80.835938 290.683594 C 80.832031 304.558594 69.542969 315.847656 55.667969 315.847656 C 41.792969 315.847656 30.5 304.558594 30.5 290.683594 Z M 181.648438 482 C 101.34375 482 35.472656 419.042969 30.78125 339.894531 C 38.261719 343.691406 46.714844 345.851562 55.667969 345.851562 C 71.488281 345.851562 85.765625 339.144531 95.835938 328.4375 C 105.90625 339.144531 120.179688 345.851562 136.003906 345.851562 L 267.457031 345.851562 C 275.742188 345.851562 282.457031 339.136719 282.457031 330.851562 C 282.457031 322.570312 275.742188 315.851562 267.457031 315.851562 L 136.003906 315.851562 C 122.128906 315.851562 110.835938 304.558594 110.835938 290.683594 C 110.839844 276.808594 122.128906 265.519531 136.003906 265.519531 L 176.164062 265.519531 C 176.167969 265.519531 176.167969 265.519531 176.167969 265.519531 L 176.171875 265.519531 C 176.171875 265.519531 176.171875 265.519531 176.175781 265.519531 L 270.027344 265.519531 C 270.050781 265.519531 270.078125 265.523438 270.101562 265.523438 C 270.136719 265.523438 270.167969 265.519531 270.203125 265.519531 L 307.625 265.519531 C 321.449219 265.519531 332.703125 276.714844 332.796875 290.515625 C 332.792969 290.652344 332.792969 290.792969 332.792969 290.933594 L 332.792969 330.851562 C 332.792969 414.195312 264.988281 482 181.648438 482 Z M 181.648438 482 "/>
</g>
</symbol><symbol id="icon-4-sec2" viewBox="0 0 512.001 512.001">
<g>
	<g>
		<path d="M341.954,328.358c-12.131,0-22-8.542-22-19.041c0-10.5,9.869-19.042,22-19.042c12.131,0,22,8.542,22,19.042
			c0,5.522,4.478,10,10,10c5.522,0,10-4.478,10-10c0-18.325-13.654-33.733-32-37.915v-5.201c0-5.522-4.478-10-10-10
			c-5.522,0-10,4.478-10,10v5.201c-18.346,4.182-32,19.59-32,37.915c0,21.527,18.841,39.041,42,39.041c12.131,0,22,8.542,22,19.042
			s-9.869,19.042-22,19.042c-12.131,0-22-8.542-22-19.042c0-5.522-4.478-10-10-10c-5.522,0-10,4.478-10,10
			c0,18.325,13.654,33.733,32,37.915v4.32c0,5.522,4.478,10,10,10c5.522,0,10-4.478,10-10v-4.32c18.346-4.182,32-19.59,32-37.915
			C383.954,345.872,365.113,328.358,341.954,328.358z"/>
	</g>
</g>
<g>
	<g>
		<path d="M451.482,268.876c-13.063-20.355-31.467-36.643-53.222-47.101c-4.979-2.394-10.954-0.298-13.346,4.68
			c-2.393,4.978-0.298,10.952,4.68,13.345C427.505,258.024,452,296.963,452,339.001c0,17.988-4.434,35.827-12.821,51.591
			c-2.594,4.875-0.745,10.931,4.131,13.525c1.496,0.796,3.104,1.174,4.688,1.174c3.578,0,7.039-1.926,8.837-5.305
			C466.756,381.342,472,360.253,472,339.001C472,314.041,464.905,289.792,451.482,268.876z"/>
	</g>
</g>
<g>
	<g>
		<path d="M357.673,209.002L357,209.001c-5.522,0-10,4.477-10,10c0,5.523,4.478,10,10,10l0.579,0.001c0.016,0,0.031,0,0.048,0
			c5.501,0,9.973-4.446,9.999-9.953C367.651,213.526,363.195,209.028,357.673,209.002z"/>
	</g>
</g>
<g>
	<g>
		<path d="M294.407,438.202c-37.91-18.225-62.405-57.164-62.405-99.201c0-17.988,4.434-35.827,12.821-51.591
			c2.594-4.875,0.745-10.931-4.131-13.525c-4.874-2.594-10.932-0.745-13.525,4.131c-9.921,18.645-15.165,39.733-15.165,60.985
			c0,24.96,7.095,49.208,20.518,70.125c13.063,20.355,31.467,36.643,53.222,47.102c1.397,0.672,2.873,0.989,4.326,0.989
			c3.724,0,7.298-2.089,9.02-5.669C301.479,446.57,299.385,440.595,294.407,438.202z"/>
	</g>
</g>
<g>
	<g>
		<path d="M327.002,449.001l-0.579-0.002c-5.548-0.01-10.02,4.429-10.045,9.953c-0.026,5.523,4.432,10.021,9.954,10.047l0.67,0.002
			c5.522,0,10-4.478,10-10C337.002,453.479,332.524,449.001,327.002,449.001z"/>
	</g>
</g>
<g>
	<g>
		<path d="M387.409,175.168c-1.217-2.9-2.708-5.633-4.443-8.168H409c25.364,0,46-20.636,46-46s-20.636-46-46-46h-80.08
			c5.091-7.402,8.08-16.357,8.08-26c0-25.364-20.636-46-46-46H46C20.636,3,0,23.636,0,49s20.636,46,46,46h80.08
			c-5.091,7.402-8.08,16.357-8.08,26s2.988,18.598,8.08,26H100c-25.364,0-46,20.636-46,46c0,14.567,6.814,27.566,17.415,36
			C60.814,237.434,54,250.433,54,265s6.814,27.566,17.415,36C60.814,309.434,54,322.433,54,337c0,14.567,6.814,27.566,17.415,36
			C60.814,381.434,54,394.433,54,409c0,25.364,20.636,46,46,46h117.85c31.046,33.207,75.212,54.001,124.151,54.001
			c93.738,0,170-76.262,170-170C512.001,260.984,459.171,195.083,387.409,175.168z M409,95c14.337,0,26,11.664,26,26
			s-11.663,26-26,26h-64H164c-14.337,0-26-11.664-26-26s11.663-26,26-26H409z M46,75c-14.337,0-26-11.664-26-26s11.663-26,26-26h245
			c14.337,0,26,11.664,26,26s-11.663,26-26,26H46z M100,167h245c4.028,0,7.885,0.936,11.345,2.612
			c-4.73-0.397-9.512-0.611-14.344-0.611c-46.945,0-89.505,19.129-120.299,49.999H100c-14.336,0-26-11.664-26-26S85.664,167,100,167
			z M100,239h104.615c-11.352,15.553-20.129,33.095-25.703,52H100c-14.337,0-26-11.663-26-26C74,250.664,85.663,239,100,239z
			 M100,311h74.32c-1.517,9.113-2.319,18.464-2.319,28.001c0,8.146,0.589,16.156,1.702,23.999H100c-14.337,0-26-11.663-26-26
			C74,322.663,85.663,311,100,311z M100,435c-14.337,0-26-11.663-26-26c0-14.337,11.663-26,26-26h77.786
			c5.046,18.813,13.243,36.346,23.993,52H100z M342.001,489.001c-82.71,0-150-67.29-150-150s67.29-150,150-150s150,67.29,150,150
			S424.711,489.001,342.001,489.001z"/>
	</g>
</g>
<g>
</g>
<g>
</g>
<g>
</g>
<g>
</g>
<g>
</g>
<g>
</g>
<g>
</g>
<g>
</g>
<g>
</g>
<g>
</g>
<g>
</g>
<g>
</g>
<g>
</g>
<g>
</g>
<g>
</g>
</symbol><symbol id="icon-5-sec2" viewBox="0 0 512 512"><path d="m256 0c-107.9375 0-195.75 87.8125-195.75 195.75 0 37.136719 10.449219 73.277344 30.214844 104.523438 17.539062 27.722656 41.691406 50.53125 70.203125 66.453124v49.941407c0 52.566406 42.765625 95.332031 95.332031 95.332031h.003906c25.460938 0 49.398438-9.917969 67.402344-27.921875 18.007812-18.007813 27.925781-41.945313 27.925781-67.410156v-49.945313c28.507813-15.921875 52.664063-38.726562 70.203125-66.449218 19.765625-31.246094 30.210938-67.386719 30.210938-104.523438.003906-107.9375-87.808594-195.75-195.746094-195.75zm-65.332031 412.355469v-39.644531h130.664062v39.644531zm65.328125-179.382813c-8.28125 0-15 6.714844-15 15v94.742188h-50.328125v-111.878906h130.667969l-.003907 111.878906h-50.335937v-94.742188c0-8.285156-6.714844-15-15-15zm-25.921875-50.332031h51.847656l18.195313 18.195313h-88.238282zm25.925781 299.359375c-26.910156 0-50.0625-16.355469-60.0625-39.644531h120.15625c-3.234375 7.5625-7.90625 14.519531-13.898438 20.511719-12.339843 12.335937-28.746093 19.132812-46.195312 19.132812zm95.332031-150.601562v-115.5625c0-3.980469-1.578125-7.792969-4.390625-10.605469l-80.335937-80.332031c-5.859375-5.855469-15.355469-5.855469-21.214844 0l-80.328125 80.332031c-2.816406 2.8125-4.394531 6.628906-4.394531 10.605469v115.5625c-43.957031-30.761719-70.417969-80.773438-70.417969-135.648438 0-91.394531 74.355469-165.75 165.75-165.75s165.75 74.355469 165.75 165.75c0 54.875-26.460938 104.886719-70.417969 135.648438zm0 0"/><path d="m15 180.75c-3.949219 0-7.808594 1.601562-10.609375 4.390625-2.789063 2.796875-4.390625 6.660156-4.390625 10.609375s1.601562 7.808594 4.390625 10.609375c2.800781 2.789063 6.660156 4.390625 10.609375 4.390625s7.820312-1.601562 10.609375-4.390625c2.789063-2.800781 4.390625-6.660156 4.390625-10.609375s-1.601562-7.8125-4.390625-10.609375c-2.800781-2.789063-6.660156-4.390625-10.609375-4.390625zm0 0"/><path d="m507.601562 185.140625c-2.792968-2.789063-6.652343-4.390625-10.601562-4.390625s-7.820312 1.601562-10.609375 4.390625c-2.789063 2.800781-4.390625 6.660156-4.390625 10.609375s1.601562 7.808594 4.390625 10.609375c2.789063 2.789063 6.660156 4.390625 10.609375 4.390625s7.808594-1.601562 10.601562-4.390625c2.796876-2.800781 4.398438-6.660156 4.398438-10.609375s-1.601562-7.8125-4.398438-10.609375zm0 0"/><path d="m85.589844 40.339844c3.949218 0 7.808594-1.601563 10.609375-4.398438 2.789062-2.792968 4.390625-6.652344 4.390625-10.601562 0-3.949219-1.601563-7.820313-4.390625-10.609375-2.800781-2.789063-6.660157-4.390625-10.609375-4.390625-3.949219 0-7.820313 1.601562-10.609375 4.390625-2.789063 2.789062-4.390625 6.660156-4.390625 10.609375 0 3.949218 1.601562 7.808594 4.390625 10.601562 2.800781 2.796875 6.660156 4.398438 10.609375 4.398438zm0 0"/><path d="m426.410156 351.160156c-3.941406 0-7.808594 1.609375-10.601562 4.398438-2.796875 2.789062-4.398438 6.660156-4.398438 10.601562 0 3.949219 1.601563 7.820313 4.398438 10.609375 2.792968 2.789063 6.660156 4.390625 10.601562 4.390625 3.949219 0 7.820313-1.601562 10.609375-4.390625 2.789063-2.789062 4.390625-6.660156 4.390625-10.609375 0-3.941406-1.601562-7.8125-4.390625-10.601562-2.789062-2.789063-6.660156-4.398438-10.609375-4.398438zm0 0"/><path d="m426.410156 40.339844c3.941406 0 7.808594-1.601563 10.609375-4.398438 2.789063-2.792968 4.390625-6.652344 4.390625-10.601562 0-3.949219-1.601562-7.820313-4.390625-10.609375-2.800781-2.789063-6.660156-4.390625-10.609375-4.390625-3.949218 0-7.820312 1.601562-10.609375 4.390625-2.789062 2.789062-4.390625 6.660156-4.390625 10.609375 0 3.949218 1.601563 7.808594 4.390625 10.601562 2.800781 2.796875 6.660157 4.398438 10.609375 4.398438zm0 0"/><path d="m85.589844 351.160156c-3.949219 0-7.820313 1.609375-10.609375 4.398438-2.789063 2.789062-4.390625 6.660156-4.390625 10.601562 0 3.949219 1.601562 7.820313 4.390625 10.609375 2.789062 2.789063 6.660156 4.390625 10.609375 4.390625 3.949218 0 7.808594-1.601562 10.601562-4.390625 2.796875-2.789062 4.398438-6.660156 4.398438-10.609375 0-3.941406-1.601563-7.8125-4.398438-10.601562-2.792968-2.789063-6.652344-4.398438-10.601562-4.398438zm0 0"/></symbol><symbol id="icon-6-sec2" viewBox="0 0 512 512"><path d="m507.605469 165.0625-160.664063-160.667969c-2.816406-2.816406-6.628906-4.394531-10.609375-4.394531h-200.832031c-30.417969 0-55.167969 24.746094-55.167969 55.167969v193.863281h-25.167969c-30.417968 0-55.164062 24.75-55.164062 55.167969v64.269531c0 30.417969 24.746094 55.164062 55.164062 55.164062h25.167969v33.199219c0 30.421875 24.75 55.167969 55.167969 55.167969h321.332031c30.421875 0 55.167969-24.746094 55.167969-55.167969v-281.164062c0-3.980469-1.582031-7.796875-4.394531-10.605469zm-156.273438-113.847656 109.453125 109.453125h-84.285156c-13.878906 0-25.167969-11.289063-25.167969-25.167969zm-321.332031 317.253906v-64.269531c0-13.875 11.289062-25.167969 25.164062-25.167969h281.167969c13.878907 0 25.167969 11.292969 25.167969 25.167969v64.269531c0 13.875-11.289062 25.164062-25.167969 25.164062h-281.167969c-13.875 0-25.164062-11.289062-25.164062-25.164062zm426.832031 113.53125h-321.332031c-13.878906 0-25.167969-11.289062-25.167969-25.167969v-33.199219h226c30.421875 0 55.167969-24.746093 55.167969-55.164062v-64.269531c0-30.417969-24.746094-55.167969-55.167969-55.167969h-226v-193.863281c0-13.878907 11.289063-25.167969 25.167969-25.167969h185.832031v105.5c0 30.417969 24.75 55.167969 55.167969 55.167969h105.5v266.164062c0 13.878907-11.289062 25.167969-25.167969 25.167969zm0 0"/></symbol><symbol id="icon-7-sec2" viewBox="0 0 512.00038 512">
<g id="surface1">
<path d="M 507.605469 486.394531 L 447.3125 426.097656 C 489.125 379.1875 512 319.355469 512 256 C 512 206.714844 498.132812 159.355469 471.792969 118.226562 L 507.605469 82.414062 C 511.28125 78.734375 512.792969 73.417969 511.597656 68.359375 C 510.402344 63.300781 506.675781 59.21875 501.742188 57.578125 L 466.257812 45.746094 L 454.429688 10.257812 C 452.78125 5.328125 448.703125 1.597656 443.644531 0.402344 C 438.585938 -0.789062 433.269531 0.71875 429.589844 4.394531 L 393.777344 40.210938 C 352.644531 13.871094 305.28125 0 256 0 C 187.621094 0 123.332031 26.628906 74.980469 74.980469 C 26.628906 123.332031 0 187.621094 0 256 C 0 319.355469 22.875 379.1875 64.691406 426.097656 L 4.394531 486.394531 C -1.464844 492.25 -1.464844 501.75 4.394531 507.605469 C 7.324219 510.535156 11.160156 512 15 512 C 18.839844 512 22.679688 510.535156 25.605469 507.605469 L 85.902344 447.308594 C 132.8125 489.128906 192.644531 512 256 512 C 319.355469 512 379.1875 489.125 426.097656 447.308594 L 486.394531 507.605469 C 489.324219 510.535156 493.160156 512 497 512 C 500.839844 512 504.679688 510.535156 507.605469 507.605469 C 513.464844 501.75 513.464844 492.253906 507.605469 486.394531 Z M 433.644531 42.769531 L 440.167969 62.34375 C 441.660156 66.824219 445.175781 70.339844 449.652344 71.832031 L 469.230469 78.359375 L 436.144531 111.445312 L 409.453125 102.546875 L 400.554688 75.855469 Z M 321.335938 256 C 321.335938 292.023438 292.023438 321.332031 256 321.332031 C 219.976562 321.332031 190.667969 292.023438 190.667969 256 C 190.667969 219.976562 219.976562 190.667969 256 190.667969 C 268.589844 190.667969 280.351562 194.253906 290.335938 200.449219 L 245.394531 245.394531 C 239.535156 251.253906 239.535156 260.75 245.394531 266.605469 C 248.320312 269.535156 252.160156 271 256 271 C 259.839844 271 263.679688 269.535156 266.605469 266.605469 L 311.550781 221.664062 C 317.746094 231.648438 321.335938 243.410156 321.335938 256 Z M 311.9375 178.851562 C 296.214844 167.421875 276.882812 160.667969 256 160.667969 C 203.433594 160.667969 160.667969 203.433594 160.667969 256 C 160.667969 308.566406 203.433594 351.332031 256 351.332031 C 308.566406 351.332031 351.335938 308.566406 351.335938 256 C 351.335938 235.117188 344.582031 215.789062 333.148438 200.0625 L 369.011719 164.203125 C 389.414062 189.273438 401.667969 221.230469 401.667969 256 C 401.667969 336.320312 336.320312 401.667969 256 401.667969 C 175.679688 401.667969 110.335938 336.320312 110.335938 256 C 110.335938 175.679688 175.679688 110.332031 256 110.332031 C 290.769531 110.332031 322.726562 122.585938 347.800781 142.988281 Z M 30 256 C 30 131.382812 131.382812 30 256 30 C 297.296875 30 337.058594 41.019531 372.03125 62.011719 C 368.597656 65.992188 367.480469 71.511719 369.160156 76.550781 L 380.433594 110.355469 L 369.09375 121.695312 C 338.511719 95.902344 299.042969 80.332031 256 80.332031 C 159.136719 80.332031 80.335938 159.136719 80.335938 256 C 80.335938 352.863281 159.136719 431.667969 256 431.667969 C 352.863281 431.667969 431.667969 352.863281 431.667969 256 C 431.667969 212.957031 416.097656 173.488281 390.304688 142.90625 L 401.644531 131.566406 L 435.453125 142.839844 C 437.007812 143.355469 438.605469 143.609375 440.195312 143.609375 C 443.75 143.609375 447.230469 142.332031 449.984375 139.957031 C 470.980469 174.933594 482 214.699219 482 256 C 482 380.617188 380.617188 482 256 482 C 131.382812 482 30 380.617188 30 256 Z M 30 256 "/>
</g>
</symbol><symbol id="icon-arrow" viewBox="0 0 19 13">
<path fill-rule="evenodd" d="M12.794,0.194 C12.535,-0.067 12.105,-0.067 11.837,0.194 C11.578,0.446 11.578,0.865 11.837,1.117 L16.692,5.842 L0.670,5.842 C0.297,5.842 -0.000,6.131 -0.000,6.494 C-0.000,6.858 0.297,7.156 0.670,7.156 L16.692,7.156 L11.837,11.872 C11.578,12.133 11.578,12.552 11.837,12.803 C12.105,13.064 12.536,13.064 12.794,12.803 L18.799,6.960 C19.067,6.708 19.067,6.290 18.799,6.038 L12.794,0.194 Z"/>
</symbol><symbol id="icon-facebook" viewBox="0 0 112.196 112.196">
  <circle cx="56.098" cy="56.098" r="56.098" fill="#3b5998"/>
  <path d="M70.201 58.294h-10.01v36.672H45.025V58.294h-7.213V45.406h7.213v-8.34c0-5.964 2.833-15.303 15.301-15.303l11.234.047v12.51h-8.151c-1.337 0-3.217.668-3.217 3.513v7.585h11.334l-1.325 12.876z" fill="#fff"/>
</symbol><symbol id="icon-goiteens_logo-01" viewBox="0 0 2119 557.9">
<style type="text/css">
.st0{fill: #FCAE26;}
.st1{fill: #FFFFFF;stroke: #FFFFFF;stroke-width: 14;stroke-miterlimit: 10;}
.st2{display: none;}
</style>
<g id="&#x421;&#x43B;&#x43E;&#x439;_3">

		<rect x="816.1" y="44.2" transform="matrix(0.9981 -6.081947e-02 6.081947e-02 0.9981 -14.1313 89.2072)" style="fill: #FCAE26;" class="st0" width="1284.4" height="465"/>
	<g>
		<path style="fill: #FFFFFF;stroke: #FFFFFF;stroke-width: 14;stroke-miterlimit: 10;" class="st1" d="M977.4,212.1l43-2.6l11.9,195.6l-43,2.6L977.4,212.1z"/>
	</g>
	<g>
		<path style="fill: #FFFFFF;stroke: #FFFFFF;stroke-width: 14;stroke-miterlimit: 10;" class="st1" d="M1139.2,242.1l-59.5,3.6l-2.4-39.7l162.1-9.9l2.4,39.7l-59.5,3.6l9.5,156l-43,2.6L1139.2,242.1z"/>
		<path style="fill: #FFFFFF;stroke: #FFFFFF;stroke-width: 14;stroke-miterlimit: 10;" class="st1" d="M1255.4,316.7c-2.6-42.8,25.7-79.8,69.3-82.5c50-3,75.3,34.4,77.9,76.9c0.2,3.4,0.2,7.3,0.1,11.2l-104.2,6.4
			c5.4,19,19.4,28.3,38.4,27.1c14.3-0.9,24.3-6,35.4-17.6l25.6,20c-12.9,18.2-32.4,30-59.5,31.7
			C1293.4,392.6,1258.3,363.1,1255.4,316.7z M1360.3,298.2c-3.7-18.9-15.6-31-33.5-29.9c-17.6,1.1-28.3,14.3-30.5,33.8L1360.3,298.2
			z"/>
		<path style="fill: #FFFFFF;stroke: #FFFFFF;stroke-width: 14;stroke-miterlimit: 10;" class="st1" d="M1443.5,305.2c-2.6-42.8,25.7-79.8,69.3-82.5c50-3,75.3,34.4,77.9,76.9c0.2,3.4,0.2,7.3,0.1,11.2l-104.2,6.4
			c5.4,19,19.4,28.3,38.4,27.1c14.3-0.9,24.3-6,35.4-17.6l25.6,20c-12.9,18.2-32.4,30-59.5,31.7
			C1481.5,381.2,1446.4,351.6,1443.5,305.2z M1548.4,286.7c-3.7-18.9-15.6-31-33.5-29.9c-17.6,1.1-28.3,14.3-30.5,33.8L1548.4,286.7
			z"/>
		<path style="fill: #FFFFFF;stroke: #FFFFFF;stroke-width: 14;stroke-miterlimit: 10;" class="st1" d="M1634.3,218.1l42.5-2.6l1.3,21.2c9-13.2,20.9-25.4,42.4-26.7c32.1-2,52.2,18.1,54.3,52.5l5.9,97l-42.5,2.6
			l-5.1-83.6c-1.2-20.1-11.4-29.9-27.6-28.9c-16.2,1-25.9,12-24.7,32.1l5.1,83.6l-42.5,2.6L1634.3,218.1z"/>
		<path style="fill: #FFFFFF;stroke: #FFFFFF;stroke-width: 14;stroke-miterlimit: 10;" class="st1" d="M1821.4,337.2l16.5-29.1c16.9,10.8,34.3,15.9,48.3,15c12.3-0.7,17.6-5.6,17.2-12.8
			c-0.6-9.2-15.3-11.4-32.1-15.4c-21.3-4.9-45.7-13.2-47.5-42.8c-1.9-30.5,21.7-49,51.9-50.8c19-1.2,40.1,4,57,13.9l-14.4,30.3
			c-15.3-7.8-30.5-12.2-41.4-11.5c-10.3,0.6-15.4,5.4-15,11.9c0.5,8.4,15,11.4,31.6,16c21.4,5.7,46.3,14.3,48,42.2
			c2,33.3-21.9,49.9-54.3,51.8C1866.1,357.2,1842.2,351.6,1821.4,337.2z"/>
	</g>
</g>
<g id="logo_with_white_text">
	<g>
		<g>
			<polygon points="847,221.3 688.6,17.9 7.8,59.4 36.1,523.6 716.9,482.1 849.9,267.7 864.6,243.7 			"/>
		</g>
	</g>
	<g>
		<path style="fill: #FFFFFF;stroke: #FFFFFF;stroke-width: 14;stroke-miterlimit: 10;" class="st1" d="M181.5,280.9c-3.4-55.6,37.2-103.8,96.4-107.4c35.2-2.1,57,6.1,78.5,22.1l-25.1,34.4
			c-15.9-11.7-29.7-18.1-52.4-16.7c-31.3,1.9-54.5,31.1-52.4,64.9c2.2,35.8,28.4,60.5,63,58.4c15.7-1,29.4-5.7,39.8-14.2l-1.7-27.9
			l-43.3,2.6l-2.3-37.2l85-5.2l5.2,85c-19.1,18.3-45.9,33.9-81.7,36.1C229.6,379.5,185.1,339.3,181.5,280.9z"/>
	</g>
	<g>
		<path style="fill: #FFFFFF;stroke: #FFFFFF;stroke-width: 14;stroke-miterlimit: 10;" class="st1" d="M441.1,266.5c-3.4-55.6,37.7-103.8,98.1-107.5c60.4-3.7,106.4,38.7,109.9,94.9
			c3.4,55.6-37.7,103.8-98.1,107.5C490.6,365,444.5,322.6,441.1,266.5z M604,256.5c-2-33.5-28.3-60-63-57.9
			c-34.7,2.1-57,31-54.9,65.1c2,33.5,28.3,60,63,57.9C583.7,319.5,606.1,290.6,604,256.5z"/>
	</g>
</g>
<g id="&#x421;&#x43B;&#x43E;&#x439;_2" style="display: none;" class="st2">
</g>
</symbol><symbol id="icon-quote" viewBox="0 0 28.7 23">
<style type="text/css">
	.st0{fill:#FCAE26;}
	.st1{font-family:'ProximaNova-Regular';}
	.st2{font-size:90px;}
</style>
<text transform="matrix(1 0 0 1 -2.6667 62.3333)" class="st0 st1 st2">&#x201C;</text>
</symbol><symbol id="icon-telegram" viewBox="0 0 512 512">
  <circle cx="255.997" cy="256" r="255.997" fill="#41b4e6"/>
  <path d="M512 256.003c0-6.238-.235-12.419-.673-18.546L405.228 131.36 106.772 248.759l114.191 114.192 1.498 5.392 1.939-1.955.008.008-1.947 1.947L348.778 494.66C444.298 457.5 512 364.663 512 256.003z" fill="#0091c8"/>
  <path fill="#fff" d="M231.138 293.3l115.691 87.347 58.399-249.287-298.457 117.399 90.817 30.081 165.743-111.176z"/>
  <path fill="#d2d2d7" d="M197.588 278.84l24.873 89.504 8.677-75.044 132.193-125.636z"/>
  <path fill="#b9b9be" d="M268.738 321.688l-46.277 46.656 8.677-75.044z"/>
</symbol><symbol id="icon-title-icon-2-24px" viewBox="0 0 24 24"><path d="M13 13v8h8v-8h-8zM3 21h8v-8H3v8zM3 3v8h8V3H3zm13.66-1.31L11 7.34 16.66 13l5.66-5.66-5.66-5.65z"/><path d="M0 0h24v24H0z" fill="none"/></symbol><symbol id="icon-youtube" viewBox="0 0 512 512">
  <circle cx="256" cy="256" r="256" fill="#d22215"/>
  <path d="M384.857 170.339c-7.677 2.343-15.682 4.356-23.699 6.361-56.889 12.067-132.741-20.687-165.495 32.754-27.317 42.494-35.942 95.668-67.017 133.663L294.629 509.1c110.47-16.72 197.773-104.036 214.476-214.511l-124.248-124.25z" fill="#a81411"/>
  <path d="M341.649 152.333H170.351c-33.608 0-60.852 27.245-60.852 60.852v85.632c0 33.608 27.245 60.852 60.852 60.852h171.298c33.608 0 60.852-27.245 60.852-60.852v-85.632c0-33.607-27.245-60.852-60.852-60.852zm-41.155 107.834l-80.12 38.212c-2.136 1.019-4.603-.536-4.603-2.901v-78.814c0-2.4 2.532-3.955 4.67-2.87l80.12 40.601c2.386 1.207 2.343 4.624-.067 5.772z" fill="#fff"/>
  <path d="M341.649 152.333h-87.373v78.605l46.287 23.455c2.384 1.208 2.341 4.624-.069 5.773l-46.218 22.044v77.459h87.373c33.608 0 60.852-27.245 60.852-60.852v-85.632c0-33.607-27.245-60.852-60.852-60.852z" fill="#d1d1d1"/>
</symbol></svg>